<svg data-name="Layer 1" xmlns="http://www.w3.org/2000/svg" width="754.91" height="67.73" viewBox="0 0 754.91 67.73"><title>logo</title><path data-name="Local 1000" d="M297.58 66.17h-40.19c5.29-21.45 9.46-42.89 13.13-64.43H284c-1.25 5.7-8.69 41.82-11 54.19h10.41c5.51 0 11 0 16.48-.29zm71.49-33.52c-3.63 22.89-19.43 34.67-38.88 34.67C312.8 67.32 300 57 303.3 36 307 13 323.2.58 342.91.58c17.64 0 29.48 11.11 26.16 32.07zm-52.65 2.61c-2.1 13.23 4.2 21.83 16 21.83 12.74 0 21.45-10.43 23.62-24.15 2-12.85-3.38-22.12-15.17-22.12-12.87 0-22.23 10.43-24.45 24.44zM428 13.53a40 40 0 0 0-13.17-2.71c-13.08 0-24.2 9.37-26.59 24.44-2.21 14 4.72 21.83 16.94 21.83a54.18 54.18 0 0 0 15.42-2.8l-3.34 11.3a85.26 85.26 0 0 1-15.76 1.73c-16.84 0-29.66-10.32-26.34-31.32 3.65-23 19.9-35.42 39.6-35.42a66.75 66.75 0 0 1 14.52 1.84zm20.44 30.13c-4.4 7.15-8.81 14.87-13.11 22.51h-14.2c13.7-21.17 27.2-42.79 40.18-64.43h15.58c3.05 21.45 6.94 43.08 10.71 64.43h-13.77c-.76-7.73-2-15.36-3.24-22.51zm21.42-10.24l-3.22-21.54-12.76 21.54zm67.79 32.75h-40.16c5.29-21.45 9.46-42.89 13.13-64.43h13.43c-1.25 5.7-8.7 41.82-11 54.19h10.41c5.5 0 11 0 16.48-.29zm27.83-46l2.42-12.34a83.11 83.11 0 0 0 9.4-6.09H590c-2.84 11.4-9.74 44.14-13 64.43h-13.27c3.85-17.2 7.19-34.49 10.53-51.77zm78.67 10.24C641.36 48.2 632.83 67.32 614 67.32c-15.06 0-19-13.52-16.64-28.59C600.92 16.13 610.7.58 627.65.58c15.83 0 18.99 14.3 16.53 29.85zm-34.75 8.23c-1.21 7.63-1.28 18.45 6.72 18.45 10.24 0 14.76-18.74 16.09-27.14 1.14-7.25 1.73-19.13-6.78-19.13-10.33 0-14.71 19.51-16.03 27.82zm89.25-8.21c-2.81 17.77-11.35 36.89-30.19 36.89-15.06 0-19-13.52-16.65-28.59C655.39 16.13 665.17.58 682.13.58c15.87 0 18.99 14.3 16.52 29.85zm-34.77 8.21c-1.21 7.63-1.29 18.45 6.71 18.45 10.25 0 14.76-18.74 16.09-27.14 1.15-7.25 1.74-19.13-6.78-19.13-10.33 0-14.71 19.51-16.02 27.82zm89.25-8.21c-2.82 17.77-11.35 36.89-30.2 36.89-15.06 0-19-13.52-16.64-28.59C709.87 16.13 719.65.58 736.6.58c15.83 0 18.99 14.3 16.53 29.85zm-34.78 8.21c-1.21 7.63-1.29 18.45 6.72 18.45 10.24 0 14.76-18.74 16.09-27.14 1.14-7.25 1.73-19.13-6.79-19.13-10.32 0-14.7 19.51-16.02 27.82z" fill="#fff"/><path d="M2.09 49.11a41.5 41.5 0 0 0 17.75 4.16c3.67 0 10.17-.55 11.29-5 2-8.12-23.83-14.41-19.79-30.66C13.2 10.12 22.06 1 42 .85a117.3 117.3 0 0 1 19.68 1.67L60.41 17.6a42.56 42.56 0 0 0-16.12-3.13c-3.46 0-9.83 1.31-10.66 4.65-2.33 9.37 24 13.56 19.91 30.18-2.14 8.6-11.69 17.45-31.8 17.6a126.72 126.72 0 0 1-21.09-2zm115-23.18l-3.4 13.66-30.18.22-2.86 11.56 35.9-.26-3.4 13.66-54.48.43L74.53 1.48 129 1l-3.4 13.66-35.89.34-2.78 11.15zm22.26-24.21l22.71-.17-15.86 63.73-22.71.17zm58.06-.95l-9 36.31c-2.28 9.17-.71 14.6 9.56 14.52s14.55-5.54 16.84-14.71l9-36.31 22.71-.17-10.76 43.18c-3.82 15.39-20.1 21.8-41.3 22s-34.34-6-30.51-21.42L174.7.94z" fill="#fee364"/></svg>