<?xml version="1.0" standalone="no"?>
<!DOCTYPE svg PUBLIC "-//W3C//DTD SVG 20010904//EN"
 "http://www.w3.org/TR/2001/REC-SVG-20010904/DTD/svg10.dtd">
<svg version="1.0" xmlns="http://www.w3.org/2000/svg"
 width="260.000000pt" height="260.000000pt" viewBox="0 0 260.000000 260.000000"
 preserveAspectRatio="xMidYMid meet">
<metadata>
Created by potrace 1.11, written by Peter Selinger 2001-2013
</metadata>
<g transform="translate(0.000000,260.000000) scale(0.100000,-0.100000)"
fill="#000000" stroke="none">
<path d="M150 2587 c-49 -16 -123 -93 -138 -143 -17 -60 -17 -2228 0 -2288 16
-54 90 -128 144 -144 60 -17 2228 -17 2288 0 54 16 128 90 144 144 17 60 17
2228 0 2288 -16 54 -90 128 -144 144 -56 16 -2241 16 -2294 -1z m210 -324 c0
-9 -27 -157 -35 -190 -5 -22 -2 -23 49 -23 49 0 54 -2 49 -20 -5 -18 -14 -20
-84 -20 -58 0 -79 3 -79 13 0 11 26 137 45 225 4 15 13 22 30 22 14 0 25 -3
25 -7z m317 -17 c23 -20 28 -32 28 -73 0 -96 -63 -163 -152 -163 -78 0 -113
32 -113 103 0 49 39 118 80 139 51 27 122 24 157 -6z m271 2 c-3 -20 -8 -22
-48 -20 -57 4 -95 -23 -111 -76 -21 -71 16 -111 91 -100 18 3 30 0 30 -7 0
-23 -25 -35 -73 -35 -95 0 -134 79 -86 176 28 59 70 84 142 84 55 0 58 -1 55
-22z m192 20 c0 -2 9 -52 20 -113 25 -143 25 -145 -4 -145 -24 0 -36 21 -36
68 0 20 -5 22 -48 22 -46 0 -48 -1 -72 -45 -20 -37 -30 -45 -53 -45 l-29 0 18
28 c10 15 47 73 82 130 57 92 66 102 93 102 16 0 29 -1 29 -2z m190 -17 c0
-11 -7 -50 -15 -88 -9 -37 -18 -78 -20 -90 -5 -22 -2 -23 49 -23 49 0 54 -2
49 -20 -5 -18 -14 -20 -84 -20 -44 0 -79 2 -79 4 0 2 11 58 25 126 14 68 25
124 25 126 0 2 11 4 25 4 18 0 25 -5 25 -19z m357 7 c-2 -7 -15 -66 -28 -130
-23 -117 -24 -118 -52 -118 -22 0 -27 4 -23 18 7 23 36 161 36 172 0 5 -7 7
-15 4 -23 -9 -18 22 7 46 24 22 83 28 75 8z m209 -13 c32 -49 -4 -197 -55
-225 -33 -17 -86 -12 -106 10 -38 42 -9 176 49 222 11 10 38 18 58 18 29 0 41
-6 54 -25z m218 3 c31 -44 12 -159 -34 -208 -33 -35 -91 -41 -122 -13 -39 35
-13 169 43 222 32 29 92 29 113 -1z m222 -3 c32 -48 3 -175 -50 -217 -27 -22
-84 -23 -108 -1 -21 19 -24 85 -8 145 25 87 127 132 166 73z m-246 -430 c47
-47 78 -85 70 -85 -18 0 -196 31 -348 60 -63 12 -116 20 -118 17 -2 -2 49 -21
113 -42 65 -20 168 -53 228 -73 l110 -36 -338 -17 c-763 -39 -1225 -110 -1519
-234 -17 -7 -18 9 -18 244 l0 251 868 0 867 0 85 -85z m140 20 l0 -66 -72 57
c-40 31 -77 61 -82 66 -6 4 27 8 72 8 l82 0 0 -65z m109 53 c0 -7 -9 -35 -18
-63 l-18 -50 -17 54 c-21 72 -21 71 19 71 22 0 35 -5 34 -12z m-189 -272 c0
-2 -81 -52 -180 -111 -99 -59 -180 -109 -180 -111 0 -5 73 24 230 90 147 63
170 70 170 58 0 -5 -18 -60 -40 -123 -38 -107 -39 -112 -15 -84 14 17 47 63
73 102 26 40 50 73 55 73 4 0 7 -75 8 -167 0 -93 4 -159 8 -148 4 11 19 76 32
145 l24 125 3 -269 c1 -148 0 -271 -3 -274 -8 -8 -263 36 -510 89 -558 119
-835 238 -795 344 22 57 169 116 410 165 219 44 710 111 710 96z m-1801 -521
c183 -62 590 -121 1131 -164 70 -5 -114 -9 -552 -10 l-658 -1 0 100 c0 55 1
100 3 100 2 0 36 -11 76 -25z m1129 -402 c63 -45 77 -132 42 -245 -39 -126
-135 -195 -257 -185 -111 9 -148 51 -147 167 1 123 57 223 148 267 43 20 62
23 119 20 47 -3 77 -11 95 -24z m-894 3 c43 -18 66 -51 66 -98 0 -101 -67
-166 -185 -177 l-59 -6 -11 -56 c-18 -87 -19 -89 -65 -89 -27 0 -40 4 -40 14
0 32 82 401 92 413 15 18 158 17 202 -1z m246 -3 c0 -16 -7 -51 -25 -130 -5
-22 -3 -23 78 -23 l84 0 13 73 c7 39 17 78 22 85 11 13 74 17 82 4 3 -6 -50
-283 -79 -409 -4 -19 -12 -23 -44 -23 -21 0 -40 2 -43 5 -5 5 8 80 27 163 5
21 3 22 -78 22 l-84 0 -13 -72 c-20 -112 -23 -118 -70 -118 -25 0 -40 5 -40
13 0 14 78 396 85 415 2 7 22 12 45 12 32 0 40 -4 40 -17z m937 5 c6 -7 32
-78 58 -157 l48 -144 31 154 31 154 38 3 c30 3 37 0 37 -15 0 -28 -69 -375
-80 -401 -8 -18 -17 -22 -54 -22 -56 0 -54 -2 -116 188 l-47 144 -28 -144
c-37 -189 -37 -188 -80 -188 -24 0 -35 5 -35 14 0 34 81 401 91 413 14 17 93
17 106 1z m593 -23 l0 -35 -84 0 -84 0 -11 -50 c-6 -28 -11 -53 -11 -55 0 -3
32 -5 70 -5 62 0 70 -2 70 -19 0 -46 -9 -51 -85 -51 l-73 0 -7 -46 c-3 -26 -9
-53 -12 -60 -4 -11 12 -14 81 -14 92 0 100 -5 76 -51 -10 -17 -22 -19 -130
-19 -65 0 -121 4 -125 9 -5 8 66 382 80 419 3 9 38 12 125 12 l120 0 0 -35z"/>
<path d="M537 2210 c-48 -38 -58 -128 -17 -150 78 -42 175 70 126 145 -21 31
-72 34 -109 5z"/>
<path d="M1077 2188 c-23 -40 -22 -48 8 -48 22 0 25 4 25 34 0 46 -12 51 -33
14z"/>
<path d="M1793 2204 c-12 -19 -18 -47 -18 -89 0 -55 2 -60 23 -63 18 -3 26 5
43 42 27 62 23 130 -8 134 -15 2 -27 -6 -40 -24z"/>
<path d="M2014 2198 c-9 -18 -17 -58 -18 -88 -1 -49 1 -55 20 -58 26 -4 50 30
64 93 18 81 -31 120 -66 53z"/>
<path d="M2229 2186 c-28 -63 -23 -130 9 -134 18 -3 26 5 43 42 28 63 23 130
-9 134 -18 3 -26 -5 -43 -42z"/>
<path d="M1293 629 c-42 -27 -75 -99 -81 -181 -4 -61 -3 -68 21 -92 51 -51
137 -23 178 56 15 29 24 67 27 119 4 73 3 76 -23 97 -35 27 -80 28 -122 1z"/>
<path d="M440 583 c-6 -32 -14 -67 -17 -77 -5 -17 -1 -18 41 -14 57 7 73 19
88 69 10 34 9 42 -7 59 -12 13 -31 20 -56 20 l-38 0 -11 -57z"/>
</g>
</svg>
