<?xml version="1.0" standalone="no"?>
<!DOCTYPE svg PUBLIC "-//W3C//DTD SVG 20010904//EN"
 "http://www.w3.org/TR/2001/REC-SVG-20010904/DTD/svg10.dtd">
<svg version="1.0" xmlns="http://www.w3.org/2000/svg"
 width="260.000000pt" height="260.000000pt" viewBox="0 0 260.000000 260.000000"
 preserveAspectRatio="xMidYMid meet">
<metadata>
Created by potrace 1.11, written by Peter Selinger 2001-2013
</metadata>
<g transform="translate(0.000000,260.000000) scale(0.100000,-0.100000)"
fill="#000000" stroke="none">
<path d="M150 2587 c-49 -16 -123 -93 -138 -143 -17 -60 -17 -2228 0 -2288 16
-54 90 -128 144 -144 60 -17 2228 -17 2288 0 54 16 128 90 144 144 17 60 17
2228 0 2288 -16 54 -90 128 -144 144 -56 16 -2241 16 -2294 -1z m210 -324 c0
-9 -27 -157 -35 -190 -5 -22 -2 -23 49 -23 49 0 54 -2 49 -20 -5 -18 -14 -20
-84 -20 -44 0 -79 4 -79 9 0 8 34 183 45 229 4 15 13 22 30 22 14 0 25 -3 25
-7z m317 -17 c23 -20 28 -32 28 -73 0 -96 -63 -163 -152 -163 -78 0 -113 32
-113 103 0 49 39 118 80 139 51 27 122 24 157 -6z m271 2 c-3 -20 -8 -22 -48
-20 -57 4 -95 -23 -111 -76 -21 -71 16 -111 91 -100 18 3 30 0 30 -7 0 -23
-25 -35 -73 -35 -95 0 -134 79 -86 176 28 59 70 84 142 84 55 0 58 -1 55 -22z
m192 20 c0 -2 9 -52 20 -113 25 -143 25 -145 -4 -145 -24 0 -36 21 -36 68 0
20 -5 22 -48 22 -46 0 -48 -1 -72 -45 -20 -37 -30 -45 -53 -45 l-29 0 18 28
c10 15 47 73 82 130 57 92 66 102 93 102 16 0 29 -1 29 -2z m190 -17 c0 -11
-7 -50 -15 -88 -9 -37 -18 -78 -20 -90 -5 -22 -2 -23 49 -23 49 0 54 -2 49
-20 -5 -18 -14 -20 -84 -20 -44 0 -79 2 -79 4 0 2 11 58 25 126 14 68 25 124
25 126 0 2 11 4 25 4 18 0 25 -5 25 -19z m357 7 c-2 -7 -15 -66 -28 -130 -23
-117 -24 -118 -52 -118 -22 0 -27 4 -23 18 7 23 36 161 36 172 0 5 -7 7 -15 4
-23 -9 -18 22 7 46 24 22 83 28 75 8z m209 -13 c32 -49 -4 -197 -55 -225 -33
-17 -86 -12 -106 10 -38 42 -9 176 49 222 11 10 38 18 58 18 29 0 41 -6 54
-25z m220 0 c32 -49 -4 -197 -55 -225 -30 -15 -82 -12 -103 7 -39 35 -13 169
43 222 34 31 93 29 115 -4z m220 0 c32 -48 3 -175 -50 -217 -27 -22 -84 -23
-108 -1 -21 19 -24 85 -8 145 25 87 127 132 166 73z m-246 -430 c47 -47 78
-85 70 -85 -18 0 -196 31 -348 60 -63 12 -116 20 -118 17 -2 -2 49 -21 113
-42 65 -20 168 -53 228 -73 l110 -37 -155 -7 c-653 -30 -1111 -78 -1416 -148
-66 -16 -211 -64 -286 -95 -17 -7 -18 9 -18 244 l0 251 868 0 867 0 85 -85z
m140 20 l0 -66 -72 57 c-40 31 -77 61 -82 66 -6 4 27 8 72 8 l82 0 0 -65z
m109 53 c0 -7 -9 -35 -18 -63 l-18 -50 -17 54 c-21 72 -21 71 19 71 22 0 35
-5 34 -12z m-189 -272 c0 -2 -81 -52 -180 -111 -99 -59 -180 -109 -180 -111 0
-5 73 24 230 90 147 63 170 70 170 58 0 -5 -18 -60 -40 -123 -38 -107 -39
-112 -15 -84 14 17 47 63 73 102 26 40 50 73 55 73 4 0 7 -75 8 -167 0 -95 4
-159 8 -148 5 11 19 76 32 145 l24 125 3 -269 c1 -148 0 -271 -3 -274 -8 -8
-263 36 -510 89 -558 119 -835 238 -795 344 22 57 169 116 410 165 219 44 710
111 710 96z m-1801 -521 c183 -62 590 -121 1131 -164 70 -5 -114 -9 -552 -10
l-658 -1 0 100 c0 55 1 100 3 100 2 0 36 -11 76 -25z m160 -430 c7 -8 10 -21
7 -33 -6 -19 -9 -20 -39 -7 -66 27 -127 -32 -127 -123 0 -53 18 -66 80 -59 54
7 62 -1 30 -33 -30 -30 -110 -28 -147 4 -25 22 -28 31 -27 83 0 67 29 133 69
159 51 33 123 37 154 9z m223 15 c49 -14 68 -43 68 -103 0 -116 -68 -189 -174
-189 -45 1 -55 5 -80 33 -26 29 -28 37 -23 84 6 63 38 129 72 151 21 14 54 25
95 33 3 0 22 -4 42 -9z m1387 -15 c7 -8 10 -21 7 -33 -6 -19 -9 -20 -39 -7
-66 27 -127 -32 -127 -123 0 -53 18 -66 80 -59 54 7 62 -1 30 -33 -30 -30
-110 -28 -147 4 -25 22 -28 31 -27 83 0 67 29 133 69 159 51 33 123 37 154 9z
m-1130 -90 l35 -100 19 103 c18 96 21 102 43 102 30 0 30 -7 4 -141 -28 -142
-33 -151 -72 -147 -31 3 -33 6 -65 103 -18 55 -33 102 -33 105 -1 3 -11 -42
-23 -100 -21 -102 -23 -105 -50 -108 -24 -3 -28 0 -24 15 3 10 15 68 27 128
30 156 26 147 68 143 l37 -3 34 -100z m381 96 c0 -29 -14 -41 -50 -41 -43 0
-36 18 -73 -170 -12 -59 -15 -65 -40 -68 -33 -4 -34 3 -7 133 11 53 20 99 20
101 0 2 -15 4 -34 4 -38 0 -49 10 -40 34 5 13 25 16 115 16 60 0 109 -4 109
-9z m200 -9 c34 -28 30 -79 -9 -114 -28 -25 -29 -29 -17 -55 8 -15 17 -45 20
-66 l7 -38 -33 3 c-30 3 -33 7 -41 48 -10 52 -22 70 -47 70 -13 0 -19 -11 -25
-46 -10 -67 -14 -74 -47 -74 -23 0 -28 4 -24 18 2 9 14 67 26 127 31 159 21
145 100 145 51 0 73 -5 90 -18z m262 -97 c9 -60 17 -125 17 -143 1 -31 -1 -33
-26 -30 -22 2 -29 9 -33 33 -5 28 -8 30 -56 33 -50 3 -52 2 -72 -33 -16 -25
-28 -35 -47 -35 -14 0 -25 5 -25 10 0 6 23 52 51 103 108 193 96 178 137 175
l36 -3 18 -110z m528 90 c0 -22 -4 -25 -39 -25 l-40 0 -10 -52 c-6 -29 -17
-82 -24 -118 -12 -59 -15 -65 -40 -68 -33 -4 -34 3 -7 133 11 53 20 99 20 101
0 2 -15 4 -34 4 -38 0 -49 10 -40 34 5 13 24 16 110 16 l104 0 0 -25z"/>
<path d="M537 2210 c-48 -38 -58 -128 -17 -150 78 -42 175 70 126 145 -21 31
-72 34 -109 5z"/>
<path d="M1077 2188 c-23 -40 -22 -48 8 -48 22 0 25 4 25 34 0 46 -12 51 -33
14z"/>
<path d="M1793 2204 c-12 -19 -18 -47 -18 -89 0 -55 2 -60 23 -63 18 -3 26 5
43 42 27 62 23 130 -8 134 -15 2 -27 -6 -40 -24z"/>
<path d="M2014 2198 c-9 -18 -17 -58 -18 -88 -1 -49 1 -55 20 -58 26 -4 50 30
64 93 18 81 -31 120 -66 53z"/>
<path d="M2229 2186 c-28 -63 -23 -130 9 -134 18 -3 26 5 43 42 28 63 23 130
-9 134 -18 3 -26 -5 -43 -42z"/>
<path d="M653 630 c-42 -17 -79 -106 -66 -158 8 -32 47 -46 81 -30 39 20 62
58 68 114 6 46 4 53 -17 68 -26 18 -34 19 -66 6z"/>
<path d="M1456 624 c-3 -9 -6 -29 -6 -45 0 -21 5 -29 18 -29 27 0 62 29 62 50
0 34 -62 54 -74 24z"/>
<path d="M1731 561 l-31 -61 41 0 40 0 -7 58 c-3 31 -8 59 -10 61 -1 1 -17
-24 -33 -58z"/>
</g>
</svg>
