<?xml version="1.0" standalone="no"?>
<!DOCTYPE svg PUBLIC "-//W3C//DTD SVG 20010904//EN"
 "http://www.w3.org/TR/2001/REC-SVG-20010904/DTD/svg10.dtd">
<svg version="1.0" xmlns="http://www.w3.org/2000/svg"
 width="270.000000pt" height="270.000000pt" viewBox="0 0 270.000000 270.000000"
 preserveAspectRatio="xMidYMid meet">
<metadata>
Created by potrace 1.14, written by Peter Selinger 2001-2017
</metadata>
<g transform="translate(0.000000,270.000000) scale(0.100000,-0.100000)"
fill="#000000" stroke="none">
<path d="M1132 2409 c-219 -46 -398 -146 -558 -311 -71 -73 -171 -215 -199
-282 l-15 -36 46 29 c29 19 62 55 91 98 58 86 105 143 119 143 5 0 47 -18 91
-39 78 -38 83 -39 127 -28 l46 12 -90 44 c-121 59 -125 65 -75 108 91 79 273
167 408 197 142 31 138 38 36 -77 -80 -90 -179 -223 -179 -241 0 -8 53 -7 65
2 6 4 33 38 59 76 50 71 172 206 186 206 17 0 25 -40 30 -150 l5 -115 28 -3
27 -3 0 120 c0 124 4 151 24 151 18 0 148 -137 209 -221 49 -67 61 -77 91 -81
l36 -4 -21 36 c-38 64 -106 155 -168 223 -59 65 -75 97 -48 97 29 0 177 -41
237 -65 76 -31 200 -104 250 -146 47 -40 37 -53 -77 -109 -51 -25 -92 -48 -93
-52 0 -4 21 -10 48 -14 43 -6 54 -3 127 35 49 26 87 40 97 36 23 -9 80 -80
132 -165 38 -61 119 -140 132 -128 7 8 -56 128 -107 205 -157 234 -417 404
-702 458 -111 21 -299 18 -415 -6z"/>
<path d="M1120 1999 c-370 -37 -686 -170 -885 -373 -143 -145 -201 -297 -193
-509 7 -189 43 -237 176 -237 80 0 147 12 241 42 49 16 77 33 112 68 72 72 83
119 78 343 l-4 180 54 28 c209 107 606 146 967 94 235 -33 331 -72 365 -150
17 -39 19 -64 17 -237 -3 -224 -2 -228 85 -278 94 -54 199 -83 313 -84 96 -1
102 0 138 28 61 46 80 100 73 215 -9 180 -93 378 -207 491 -281 278 -815 431
-1330 379z"/>
<path d="M1320 1501 l0 -121 -230 0 -230 0 1 43 c0 23 4 66 8 95 4 28 7 52 6
52 -1 0 -16 -5 -33 -11 -33 -11 -38 -27 -44 -134 l-3 -40 -59 -3 c-54 -3 -58
-4 -52 -25 3 -12 6 -25 6 -29 0 -4 24 -8 53 -10 l52 -3 3 -45 c5 -100 36 -252
74 -365 24 -71 36 -121 30 -123 -6 -2 -69 -32 -141 -68 -72 -35 -135 -64 -140
-64 -21 0 -132 143 -175 227 -4 7 -56 -12 -56 -21 0 -26 109 -176 188 -258
165 -172 373 -281 604 -318 111 -18 331 -9 435 19 283 74 535 265 677 512 l27
47 -30 10 c-30 10 -31 9 -66 -49 -48 -77 -123 -169 -139 -169 -7 0 -60 24
-117 53 -57 30 -119 59 -136 65 -18 6 -33 17 -33 24 0 8 14 53 31 101 38 110
66 237 75 344 l6 82 52 3 c47 3 51 5 54 31 3 27 2 27 -51 27 l-55 0 -7 85 c-4
47 -10 87 -13 89 -4 2 -20 6 -35 10 -29 7 -29 6 -23 -31 3 -21 8 -64 11 -95
l6 -58 -230 0 -230 0 -3 118 -3 117 -32 3 -33 3 0 -120z m-2 -413 l-3 -233
-88 -7 c-49 -4 -125 -16 -168 -26 l-79 -19 -20 44 c-50 114 -100 328 -100 430
l0 43 230 0 230 0 -2 -232z m532 225 c0 -5 -5 -48 -10 -98 -13 -116 -44 -241
-82 -334 l-31 -73 -36 6 c-132 24 -211 36 -243 36 -71 0 -68 -9 -68 210 0 109
3 212 6 229 l7 31 228 0 c126 0 229 -3 229 -7z m-530 -723 c0 -239 1 -238
-108 -124 -72 76 -192 243 -192 269 0 19 150 51 253 54 l47 1 0 -200z m293
174 c53 -12 67 -19 67 -34 0 -31 -100 -170 -186 -259 l-81 -84 -16 33 c-13 26
-17 62 -17 164 0 72 3 148 7 170 l6 38 76 -6 c42 -4 106 -14 144 -22z m-661
-56 c8 -7 32 -42 53 -77 40 -67 111 -157 179 -228 31 -33 37 -46 28 -55 -14
-14 -143 15 -240 55 -135 54 -304 169 -288 195 11 19 212 117 247 121 3 1 12
-5 21 -11z m966 -49 c58 -28 102 -55 102 -63 0 -34 -155 -140 -280 -190 -65
-27 -205 -66 -234 -66 -32 0 -15 34 55 108 39 41 100 120 136 175 76 115 61
113 221 36z"/>
</g>
</svg>
